PathFileType	4	(X/Y/Z)	C:\Users\ebm\Documents\Erivelton\Erivelton2\wc1.trc
DataRate	CameraRate	NumFrames	NumMarkers	Units	OrigDataRate	OrigDataStartFrame	OrigNumFrames
150.00	150.00	       4	28	mm	150.00	94	       750
Frame#	Time	IJ			PX			C7			T8			RAC			RAS			RPS			RAI			RPI			RLE			RME			RRS			RUS			R3M			R5M			LAC			LAS			LPS			LAI			LPI			LLE			LME			LRS			LUS			L3M			L5M			RW			LW			V_mid_elbow_r			V_mid_elbow_l			V_mid_wrist_r			V_mid_wrist_l			V_mid_trunk_low			V_mid_trunk_upp			
		X1	Y1	Z1	X2	Y2	Z2	X3	Y3	Z3	X4	Y4	Z4	X5	Y5	Z5	X6	Y6	Z6	X7	Y7	Z7	X8	Y8	Z8	X9	Y9	Z9	X10	Y10	Z10	X11	Y11	Z11	X12	Y12	Z12	X13	Y13	Z13	X14	Y14	Z14	X15	Y15	Z15	X16	Y16	Z16	X17	Y17	Z17	X18	Y18	Z18	X19	Y19	Z19	X20	Y20	Z20	X21	Y21	Z21	X22	Y22	Z22	X23	Y23	Z23	X24	Y24	Z24	X25	Y25	Z25	X26	Y26	Z26	X27	Y27	Z27	X28	Y28	Z28	

94	0.620	2460.37158	1029.40942	-200.62503	2482.46631	865.23798	-185.67381	2324.54565	1119.38879	-206.90004	2258.56079	965.20557	-195.92194	2380.02075	1065.21179	4.35670	2411.94214	872.75720	65.95820	2362.08936	872.77728	66.41465	2421.02588	798.13751	87.68318	2367.68140	794.84167	88.87709	2381.57349	734.14673	99.02644	2371.12866	711.66064	25.80803	2554.82397	529.11932	147.33179	2497.93018	514.97217	160.03566	2561.14746	440.76096	170.39680	2524.13745	431.20639	160.14822	2366.80737	1057.74707	-388.71680	2370.22095	885.39978	-458.88333	2325.60034	874.70087	-442.78946	2388.83984	808.32050	-477.05896	2339.16577	793.50043	-458.88190	2381.50195	723.70288	-489.46243	2358.20947	701.69891	-420.08014	2549.12231	518.39465	-509.08813	2496.79810	488.56638	-532.62347	2561.93774	426.28198	-531.42151	2522.20410	422.64951	-530.60065	2440.61206	299.40588	131.40103	2428.46582	297.69467	-497.29657	
95	0.627	2460.38110	1029.39990	-200.62097	2482.46021	865.23309	-185.68079	2324.55054	1119.39050	-206.90233	2258.55566	965.20642	-195.92287	2379.99097	1065.23022	4.45197	2411.99146	872.79565	65.86274	2362.08740	872.77661	66.41029	2421.01660	798.14941	87.68454	2367.66846	794.85620	88.86705	2381.56494	734.16022	99.01632	2371.13989	711.66595	25.78652	2554.80225	529.12323	147.33826	2497.90405	514.97345	160.03592	2561.11523	440.75040	170.40009	2524.10938	431.21283	160.13057	2366.80420	1057.74731	-388.72177	2370.21338	885.39856	-458.89151	2325.59473	874.69659	-442.78998	2388.82593	808.31995	-477.06757	2339.15552	793.50763	-458.89227	2381.48682	723.69073	-489.47955	2358.18970	701.70398	-420.08640	2549.09375	518.38470	-509.09430	2496.77026	488.54706	-532.62256	2561.88745	426.30875	-531.41937	2522.16821	422.65778	-530.65747	2440.59839	299.39728	131.39473	2428.46387	297.69772	-497.29904	
96	0.633	2460.37695	1029.40869	-200.62875	2482.45386	865.22723	-185.67975	2324.54858	1119.39685	-206.92123	2258.56519	965.21619	-195.92186	2379.99658	1065.23608	4.44387	2411.90942	872.82739	65.89968	2362.09058	872.79468	66.38836	2421.01636	798.15839	87.68930	2367.66113	794.86609	88.85625	2381.56201	734.16986	98.99870	2371.16431	711.67322	25.74487	2554.79126	529.11176	147.34106	2497.86938	514.97754	160.04103	2561.08423	440.75522	170.40533	2524.08252	431.21643	160.13661	2366.81104	1057.72791	-388.72137	2370.22974	885.39948	-458.88873	2325.58984	874.68951	-442.80063	2388.81909	808.30865	-477.06854	2339.15527	793.49695	-458.89600	2381.47754	723.67389	-489.47733	2358.17236	701.69287	-420.07663	2549.08984	518.37921	-509.11237	2496.75635	488.53625	-532.63916	2561.89111	426.26236	-531.44373	2522.16138	422.66159	-530.67041	2440.58154	299.40585	131.38599	2428.45825	297.70422	-497.31332	
97	0.640	2460.36768	1029.39075	-200.63478	2482.45288	865.23248	-185.66151	2324.54907	1119.39685	-206.90643	2258.57642	965.22894	-195.92931	2380.01978	1065.22998	4.39834	2411.92017	872.79010	65.95833	2362.07300	872.79736	66.39560	2421.00366	798.16736	87.67973	2367.66772	794.86945	88.84832	2381.55566	734.17706	98.99013	2371.15186	711.67224	25.74455	2554.75024	529.11218	147.35754	2497.84937	514.98187	160.03253	2561.06177	440.75375	170.41498	2524.04810	431.20618	160.12979	2366.81177	1057.72656	-388.72833	2370.22803	885.28247	-458.94095	2325.59033	874.68872	-442.79797	2388.81763	808.30267	-477.06500	2338.99707	793.54492	-459.03442	2381.45459	723.67413	-489.49515	2358.16211	701.68384	-420.07730	2549.07300	518.37378	-509.11932	2496.73779	488.52682	-532.64636	2561.86230	426.28894	-531.44000	2522.14136	422.64520	-530.68958	2440.57959	299.41043	131.39969	2428.45728	297.70062	-497.30276	
